<svg width="504" height="355" viewBox="0 0 504 355" fill="none" xmlns="http://www.w3.org/2000/svg">
  <g filter="url(#a)" fill="#bb000f">
    <path d="M423.791 140.258q-14.392.503-25.963-5.938t-18.546-17.903q-6.975-11.464-7.471-25.675-.502-14.39 5.748-26.227 6.25-11.835 17.345-19.067t25.126-7.721q10.794-.377 19.3 3.378t13.621 10.962l-3.949 5.54L447.023.943 474.006 0l4.756 136.177-25.185.879-.628-17.989 2.713 5.489q-4.786 7.371-13.291 11.361-8.506 3.988-18.58 4.341m2.39-24.398q7.375-.258 12.832-3.871t8.392-9.838q2.935-6.227 2.658-14.142-.276-7.914-3.638-13.921t-9.057-9.23q-5.697-3.223-13.072-2.965-7.375.257-13.099 3.97t-8.752 9.85q-3.027 6.14-2.751 14.055t3.728 13.919q3.452 6.003 9.417 9.217 5.967 3.213 13.342 2.956M317.04 141.824l-3.43-98.22 25.185-.88.823 23.566-1.918-3.355q2.804-12.525 10.116-17.193t17.565-5.026l5.757-.201.816 23.386-8.455.295q-9.894.345-15.799 6.585-5.906 6.24-5.523 17.213l1.847 52.888zm-59.288 4.232q-14.571.509-26.766-5.729t-19.706-17.593q-7.512-11.355-8.026-26.106-.522-14.93 6.182-26.692 6.704-11.76 18.434-18.835 11.73-7.074 26.301-7.582 14.57-.51 26.677 5.732 12.105 6.241 19.612 17.506 7.509 11.265 8.03 26.196.514 14.75-6.186 26.602t-18.341 18.922-26.211 7.579m-.848-24.285q7.375-.258 12.743-3.867 5.367-3.61 8.301-9.836t2.659-14.141q-.277-7.916-3.635-13.832-3.359-5.917-8.968-9.232-5.609-3.316-12.985-3.06-7.375.26-12.829 3.961-5.454 3.702-8.392 9.839-2.938 6.136-2.661 14.051.276 7.916 3.638 13.922t9.057 9.229q5.697 3.224 13.072 2.966m-192.07 28.861L25.075 17.838l30.222-1.055 30.364 111.328-8.095.283 23.963-113.226 28.782-1.005 31.803 111.278-8.095.283 22.524-113.175 30.222-1.055-30.399 135.243-32.38 1.131-31.832-106.955 9.354-.326L97.214 149.5z"/>
  </g>
  <g filter="url(#b)" fill="#406926">
    <path d="m354.105 297.283 7.132-136.074 26.963 1.413-3.005 57.342-3.01-4.484q3.877-8.629 11.738-12.453t18.107-3.287q11.145.584 19.258 5.696 8.114 5.112 12.349 13.715 4.236 8.604 3.652 19.748l-3.307 63.094-26.963-1.413 3.005-57.341q.302-5.752-1.728-10.005-2.03-4.251-5.953-6.801-3.921-2.548-9.314-2.831-5.213-.273-9.47 1.847t-6.72 6.137q-2.464 4.016-2.765 9.768l-3.006 57.342zm-45.231-.208q-16.178-.848-27.731-9.114t-15.189-21.434l20.263-8.311q3.36 8.107 9.596 12.94t14.145 5.248q5.751.3 8.93-1.876t3.395-6.311q.112-2.157-.885-3.741-.999-1.584-3.09-2.956-2.091-1.37-5.28-2.44l-16.472-5.549q-11.864-4.047-17.935-12.025t-5.524-18.405q.48-9.166 5.512-15.753 5.031-6.585 13.682-10.007 8.651-3.423 19.616-2.848 14.38.754 24.902 8.065 10.522 7.31 14.375 19.769l-20.442 8.302q-1.837-6.225-7.306-10.207-5.47-3.981-12.659-4.358-5.213-.273-8.292 1.728-3.08 2.001-3.277 5.777a6.35 6.35 0 0 0 .89 3.651q.994 1.674 3.355 3.06 2.36 1.385 5.899 2.652l15.394 5.493q12.034 4.236 18.124 11.855t5.534 18.225q-.481 9.167-5.602 15.748-5.121 6.582-13.773 10.003-8.65 3.422-20.155 2.819m-103.897-5.445q-10.605-.555-18.156-4.376-7.55-3.82-11.35-10.418t-3.339-15.406q.433-8.27 4.543-14.452 4.109-6.184 12.155-10.088t19.823-5.089l30.273-3.281-1.036 19.773-25.401 3.175q-5.808.777-9.001 3.224t-3.447 7.299q-.236 4.494 3.048 7.19 3.283 2.695 8.317 2.959 6.651.349 11.834-2.264 5.184-2.612 8.229-7.409 3.046-4.798 3.357-10.729l1.337-25.525q.292-5.573-3.914-9.578-4.206-4.006-11.756-4.402-7.19-.376-12.879 3.291-5.69 3.667-8.546 10.006l-21.033-11.376q3.31-8.118 9.911-13.72 6.603-5.602 15.58-8.376t19.403-2.228q12.403.65 21.695 5.643t14.175 13.27 4.327 18.883l-3.391 64.711-25.166-1.319.829-15.818 6.169-.758q-4.654 6.245-10.088 10.196t-12.014 5.679q-6.579 1.727-14.488 1.313M52.839 281.494l7.018-133.916 43.68 2.289q21.694 1.137 37.268 10.605t23.591 25.029 6.994 35.06q-1.012 19.328-10.617 34.055-9.603 14.727-26.082 22.516t-38.172 6.651zm29.133-22.807 16.538.867q13.052.684 22.892-4.117 9.84-4.803 15.645-14.128 5.806-9.327 6.49-22.371.684-13.046-4.114-22.839-4.797-9.794-14.057-15.517t-22.382-6.411l-16.537-.866z"/>
  </g>
  <defs>
    <filter id="a" x="0" y="0" width="503.837" height="204.015" filterUnits="userSpaceOnUse" color-interpolation-filters="sRGB">
      <feFlood flood-opacity="0" result="BackgroundImageFix"/>
      <feColorMatrix in="SourceAlpha" values="0 0 0 0 0 0 0 0 0 0 0 0 0 0 0 0 0 0 127 0" result="hardAlpha"/>
      <feOffset dy="25"/>
      <feGaussianBlur stdDeviation="12.5"/>
      <feComposite in2="hardAlpha" operator="out"/>
      <feColorMatrix values="0 0 0 0 0 0 0 0 0 0 0 0 0 0 0 0 0 0 0.15 0"/>
      <feBlend in2="BackgroundImageFix" result="effect1_dropShadow_1_189"/>
      <feBlend in="SourceGraphic" in2="effect1_dropShadow_1_189" result="shape"/>
    </filter>
    <filter id="b" x="27.726" y="145.421" width="448.388" height="208.729" filterUnits="userSpaceOnUse" color-interpolation-filters="sRGB">
      <feFlood flood-opacity="0" result="BackgroundImageFix"/>
      <feColorMatrix in="SourceAlpha" values="0 0 0 0 0 0 0 0 0 0 0 0 0 0 0 0 0 0 127 0" result="hardAlpha"/>
      <feOffset dy="25"/>
      <feGaussianBlur stdDeviation="12.5"/>
      <feComposite in2="hardAlpha" operator="out"/>
      <feColorMatrix values="0 0 0 0 0 0 0 0 0 0 0 0 0 0 0 0 0 0 0.15 0"/>
      <feBlend in2="BackgroundImageFix" result="effect1_dropShadow_1_189"/>
      <feBlend in="SourceGraphic" in2="effect1_dropShadow_1_189" result="shape"/>
    </filter>
  </defs>
</svg>
